0
SECTION
2
HEADER
0
ENDSEC
0
SECTION
2
ENTITIES
0
3DFACE
8
0
62
1
10
15.058821
20
28.750000
30
0.000002
11
15.058821
21
31.750000
31
0.000002
12
10.058823
22
28.750000
32
9.999992
13
10.058823
23
28.750000
33
9.999992
0
3DFACE
8
0
62
1
10
15.058821
20
31.750000
30
0.000002
11
10.058823
21
31.750000
31
9.999992
12
10.058823
22
28.750000
32
9.999992
13
10.058823
23
28.750000
33
9.999992
0
3DFACE
8
0
62
1
10
10.058823
20
28.750000
30
9.999992
11
10.058823
21
31.750000
31
9.999992
12
0.058823
22
31.750000
32
14.999992
13
0.058823
23
31.750000
33
14.999992
0
3DFACE
8
0
62
1
10
10.058823
20
28.750000
30
9.999992
11
0.058823
21
31.750000
31
14.999992
12
0.058823
22
28.750000
32
14.999992
13
0.058823
23
28.750000
33
14.999992
0
3DFACE
8
0
62
1
10
0.058823
20
28.750000
30
14.999992
11
0.058823
21
31.750000
31
14.999992
12
-10.941174
22
28.750000
32
9.999992
13
-10.941174
23
28.750000
33
9.999992
0
3DFACE
8
0
62
1
10
0.058823
20
31.750000
30
14.999992
11
-10.941174
21
31.750000
31
9.999992
12
-10.941174
22
28.750000
32
9.999992
13
-10.941174
23
28.750000
33
9.999992
0
3DFACE
8
0
62
1
10
-10.941174
20
28.750000
30
9.999992
11
-10.941174
21
31.750000
31
9.999992
12
-14.941174
22
31.750000
32
0.000002
13
-14.941174
23
31.750000
33
0.000002
0
3DFACE
8
0
62
1
10
-10.941174
20
28.750000
30
9.999992
11
-14.941174
21
31.750000
31
0.000002
12
-14.941174
22
28.750000
32
0.000002
13
-14.941174
23
28.750000
33
0.000002
0
3DFACE
8
0
62
1
10
-14.941174
20
28.750000
30
0.000002
11
-14.941174
21
31.750000
31
0.000002
12
-10.941174
22
28.750000
32
-11.000000
13
-10.941174
23
28.750000
33
-11.000000
0
3DFACE
8
0
62
1
10
-14.941174
20
31.750000
30
0.000002
11
-10.941174
21
31.750000
31
-11.000000
12
-10.941174
22
28.750000
32
-11.000000
13
-10.941174
23
28.750000
33
-11.000000
0
3DFACE
8
0
62
1
10
-10.941174
20
28.750000
30
-11.000000
11
-10.941174
21
31.750000
31
-11.000000
12
0.058823
22
31.750000
32
-14.999998
13
0.058823
23
31.750000
33
-14.999998
0
3DFACE
8
0
62
1
10
-10.941174
20
28.750000
30
-11.000000
11
0.058823
21
31.750000
31
-14.999998
12
0.058823
22
28.750000
32
-14.999998
13
0.058823
23
28.750000
33
-14.999998
0
3DFACE
8
0
62
1
10
0.058823
20
28.750000
30
-14.999998
11
0.058823
21
31.750000
31
-14.999998
12
10.058823
22
28.750000
32
-11.000000
13
10.058823
23
28.750000
33
-11.000000
0
3DFACE
8
0
62
1
10
0.058823
20
31.750000
30
-14.999998
11
10.058823
21
31.750000
31
-11.000000
12
10.058823
22
28.750000
32
-11.000000
13
10.058823
23
28.750000
33
-11.000000
0
3DFACE
8
0
62
1
10
10.058823
20
28.750000
30
-11.000000
11
10.058823
21
31.750000
31
-11.000000
12
15.058821
22
31.750000
32
0.000002
13
15.058821
23
31.750000
33
0.000002
0
3DFACE
8
0
62
1
10
10.058823
20
28.750000
30
-11.000000
11
15.058821
21
31.750000
31
0.000002
12
15.058821
22
28.750000
32
0.000002
13
15.058821
23
28.750000
33
0.000002
0
3DFACE
8
0
62
1
10
0.058823
20
31.750000
30
14.999992
11
10.058823
21
31.750000
31
9.999992
12
0.058823
22
31.750000
32
0.000002
13
0.058823
23
31.750000
33
0.000002
0
3DFACE
8
0
62
1
10
0.058823
20
31.750000
30
0.000002
11
-10.941174
21
31.750000
31
9.999992
12
0.058823
22
31.750000
32
14.999992
13
0.058823
23
31.750000
33
14.999992
0
3DFACE
8
0
62
1
10
0.058823
20
31.750000
30
0.000002
11
-14.941174
21
31.750000
31
0.000002
12
-10.941174
22
31.750000
32
9.999992
13
-10.941174
23
31.750000
33
9.999992
0
3DFACE
8
0
62
1
10
0.058823
20
31.750000
30
0.000002
11
-10.941174
21
31.750000
31
-11.000000
12
-14.941174
22
31.750000
32
0.000002
13
-14.941174
23
31.750000
33
0.000002
0
3DFACE
8
0
62
1
10
0.058823
20
31.750000
30
0.000002
11
0.058823
21
31.750000
31
-14.999998
12
-10.941174
22
31.750000
32
-11.000000
13
-10.941174
23
31.750000
33
-11.000000
0
3DFACE
8
0
62
1
10
0.058823
20
31.750000
30
0.000002
11
10.058823
21
31.750000
31
-11.000000
12
0.058823
22
31.750000
32
-14.999998
13
0.058823
23
31.750000
33
-14.999998
0
3DFACE
8
0
62
1
10
0.058823
20
31.750000
30
0.000002
11
15.058821
21
31.750000
31
0.000002
12
10.058823
22
31.750000
32
-11.000000
13
10.058823
23
31.750000
33
-11.000000
0
3DFACE
8
0
62
1
10
0.058823
20
31.750000
30
0.000002
11
10.058823
21
31.750000
31
9.999992
12
15.058821
22
31.750000
32
0.000002
13
15.058821
23
31.750000
33
0.000002
0
3DFACE
8
0
62
1
10
0.058823
20
28.750000
30
0.000002
11
10.058823
21
28.750000
31
9.999992
12
0.058823
22
28.750000
32
14.999992
13
0.058823
23
28.750000
33
14.999992
0
3DFACE
8
0
62
1
10
0.058823
20
28.750000
30
14.999992
11
-10.941174
21
28.750000
31
9.999992
12
0.058823
22
28.750000
32
0.000002
13
0.058823
23
28.750000
33
0.000002
0
3DFACE
8
0
62
1
10
-10.941174
20
28.750000
30
9.999992
11
-14.941174
21
28.750000
31
0.000002
12
0.058823
22
28.750000
32
0.000002
13
0.058823
23
28.750000
33
0.000002
0
3DFACE
8
0
62
1
10
-14.941174
20
28.750000
30
0.000002
11
-10.941174
21
28.750000
31
-11.000000
12
0.058823
22
28.750000
32
0.000002
13
0.058823
23
28.750000
33
0.000002
0
3DFACE
8
0
62
1
10
-10.941174
20
28.750000
30
-11.000000
11
0.058823
21
28.750000
31
-14.999998
12
0.058823
22
28.750000
32
0.000002
13
0.058823
23
28.750000
33
0.000002
0
3DFACE
8
0
62
1
10
0.058823
20
28.750000
30
-14.999998
11
10.058823
21
28.750000
31
-11.000000
12
0.058823
22
28.750000
32
0.000002
13
0.058823
23
28.750000
33
0.000002
0
3DFACE
8
0
62
1
10
10.058823
20
28.750000
30
-11.000000
11
15.058821
21
28.750000
31
0.000002
12
0.058823
22
28.750000
32
0.000002
13
0.058823
23
28.750000
33
0.000002
0
3DFACE
8
0
62
1
10
15.058821
20
28.750000
30
0.000002
11
10.058823
21
28.750000
31
9.999992
12
0.058823
22
28.750000
32
0.000002
13
0.058823
23
28.750000
33
0.000002
0
3DFACE
8
0
62
1
10
-6.941175
20
29.750000
30
6.999997
11
-10.941174
21
-31.250000
31
9.999992
12
-3.941177
22
29.750000
32
6.999997
13
-3.941177
23
29.750000
33
6.999997
0
3DFACE
8
0
62
1
10
-10.941174
20
-31.250000
30
9.999992
11
-5.941175
21
-31.250000
31
9.999992
12
-3.941177
22
29.750000
32
6.999997
13
-3.941177
23
29.750000
33
6.999997
0
3DFACE
8
0
62
1
10
-3.941177
20
29.750000
30
6.999997
11
-5.941175
21
-31.250000
31
9.999992
12
-3.941177
22
29.750000
32
3.999997
13
-3.941177
23
29.750000
33
3.999997
0
3DFACE
8
0
62
1
10
-5.941175
20
-31.250000
30
9.999992
11
-5.941175
21
-31.250000
31
5.999997
12
-3.941177
22
29.750000
32
3.999997
13
-3.941177
23
29.750000
33
3.999997
0
3DFACE
8
0
62
1
10
-3.941177
20
29.750000
30
3.999997
11
-5.941175
21
-31.250000
31
5.999997
12
-6.941175
22
29.750000
32
3.999997
13
-6.941175
23
29.750000
33
3.999997
0
3DFACE
8
0
62
1
10
-5.941175
20
-31.250000
30
5.999997
11
-10.941174
21
-31.250000
31
5.999997
12
-6.941175
22
29.750000
32
3.999997
13
-6.941175
23
29.750000
33
3.999997
0
3DFACE
8
0
62
1
10
-6.941175
20
29.750000
30
3.999997
11
-10.941174
21
-31.250000
31
5.999997
12
-6.941175
22
29.750000
32
6.999997
13
-6.941175
23
29.750000
33
6.999997
0
3DFACE
8
0
62
1
10
-10.941174
20
-31.250000
30
5.999997
11
-10.941174
21
-31.250000
31
9.999992
12
-6.941175
22
29.750000
32
6.999997
13
-6.941175
23
29.750000
33
6.999997
0
3DFACE
8
0
62
1
10
-6.941175
20
29.750000
30
3.999997
11
-6.941175
21
29.750000
31
6.999997
12
-3.941177
22
29.750000
32
3.999997
13
-3.941177
23
29.750000
33
3.999997
0
3DFACE
8
0
62
1
10
-6.941175
20
29.750000
30
6.999997
11
-3.941177
21
29.750000
31
6.999997
12
-3.941177
22
29.750000
32
3.999997
13
-3.941177
23
29.750000
33
3.999997
0
3DFACE
8
0
62
1
10
-10.941174
20
-31.250000
30
9.999992
11
-10.941174
21
-31.250000
31
5.999997
12
-5.941175
22
-31.250000
32
9.999992
13
-5.941175
23
-31.250000
33
9.999992
0
3DFACE
8
0
62
1
10
-10.941174
20
-31.250000
30
5.999997
11
-5.941175
21
-31.250000
31
5.999997
12
-5.941175
22
-31.250000
32
9.999992
13
-5.941175
23
-31.250000
33
9.999992
0
3DFACE
8
0
62
1
10
4.058824
20
29.750000
30
6.999997
11
6.058824
21
-31.250000
31
9.999992
12
7.058823
22
29.750000
32
6.999997
13
7.058823
23
29.750000
33
6.999997
0
3DFACE
8
0
62
1
10
6.058824
20
-31.250000
30
9.999992
11
10.058823
21
-31.250000
31
9.999992
12
7.058823
22
29.750000
32
6.999997
13
7.058823
23
29.750000
33
6.999997
0
3DFACE
8
0
62
1
10
7.058823
20
29.750000
30
6.999997
11
10.058823
21
-31.250000
31
9.999992
12
7.058823
22
29.750000
32
3.999997
13
7.058823
23
29.750000
33
3.999997
0
3DFACE
8
0
62
1
10
10.058823
20
-31.250000
30
9.999992
11
10.058823
21
-31.250000
31
5.999997
12
7.058823
22
29.750000
32
3.999997
13
7.058823
23
29.750000
33
3.999997
0
3DFACE
8
0
62
1
10
7.058823
20
29.750000
30
3.999997
11
10.058823
21
-31.250000
31
5.999997
12
4.058824
22
29.750000
32
3.999997
13
4.058824
23
29.750000
33
3.999997
0
3DFACE
8
0
62
1
10
10.058823
20
-31.250000
30
5.999997
11
6.058824
21
-31.250000
31
5.999997
12
4.058824
22
29.750000
32
3.999997
13
4.058824
23
29.750000
33
3.999997
0
3DFACE
8
0
62
1
10
4.058824
20
29.750000
30
3.999997
11
6.058824
21
-31.250000
31
5.999997
12
4.058824
22
29.750000
32
6.999997
13
4.058824
23
29.750000
33
6.999997
0
3DFACE
8
0
62
1
10
6.058824
20
-31.250000
30
5.999997
11
6.058824
21
-31.250000
31
9.999992
12
4.058824
22
29.750000
32
6.999997
13
4.058824
23
29.750000
33
6.999997
0
3DFACE
8
0
62
1
10
4.058824
20
29.750000
30
6.999997
11
7.058823
21
29.750000
31
6.999997
12
7.058823
22
29.750000
32
3.999997
13
7.058823
23
29.750000
33
3.999997
0
3DFACE
8
0
62
1
10
6.058824
20
-31.250000
30
9.999992
11
6.058824
21
-31.250000
31
5.999997
12
10.058823
22
-31.250000
32
9.999992
13
10.058823
23
-31.250000
33
9.999992
0
3DFACE
8
0
62
1
10
6.058824
20
-31.250000
30
5.999997
11
10.058823
21
-31.250000
31
5.999997
12
10.058823
22
-31.250000
32
9.999992
13
10.058823
23
-31.250000
33
9.999992
0
3DFACE
8
0
62
1
10
4.058824
20
29.750000
30
-4.999999
11
6.058824
21
-31.250000
31
-6.999999
12
7.058823
22
29.750000
32
-4.999999
13
7.058823
23
29.750000
33
-4.999999
0
3DFACE
8
0
62
1
10
6.058824
20
-31.250000
30
-6.999999
11
10.058823
21
-31.250000
31
-6.999999
12
7.058823
22
29.750000
32
-4.999999
13
7.058823
23
29.750000
33
-4.999999
0
3DFACE
8
0
62
1
10
7.058823
20
29.750000
30
-4.999999
11
10.058823
21
-31.250000
31
-6.999999
12
7.058823
22
29.750000
32
-6.999999
13
7.058823
23
29.750000
33
-6.999999
0
3DFACE
8
0
62
1
10
10.058823
20
-31.250000
30
-6.999999
11
10.058823
21
-31.250000
31
-11.000000
12
7.058823
22
29.750000
32
-6.999999
13
7.058823
23
29.750000
33
-6.999999
0
3DFACE
8
0
62
1
10
7.058823
20
29.750000
30
-6.999999
11
10.058823
21
-31.250000
31
-11.000000
12
4.058824
22
29.750000
32
-6.999999
13
4.058824
23
29.750000
33
-6.999999
0
3DFACE
8
0
62
1
10
10.058823
20
-31.250000
30
-11.000000
11
6.058824
21
-31.250000
31
-11.000000
12
4.058824
22
29.750000
32
-6.999999
13
4.058824
23
29.750000
33
-6.999999
0
3DFACE
8
0
62
1
10
4.058824
20
29.750000
30
-6.999999
11
6.058824
21
-31.250000
31
-11.000000
12
4.058824
22
29.750000
32
-4.999999
13
4.058824
23
29.750000
33
-4.999999
0
3DFACE
8
0
62
1
10
6.058824
20
-31.250000
30
-11.000000
11
6.058824
21
-31.250000
31
-6.999999
12
4.058824
22
29.750000
32
-4.999999
13
4.058824
23
29.750000
33
-4.999999
0
3DFACE
8
0
62
1
10
4.058824
20
29.750000
30
-6.999999
11
4.058824
21
29.750000
31
-4.999999
12
7.058823
22
29.750000
32
-6.999999
13
7.058823
23
29.750000
33
-6.999999
0
3DFACE
8
0
62
1
10
4.058824
20
29.750000
30
-4.999999
11
7.058823
21
29.750000
31
-4.999999
12
7.058823
22
29.750000
32
-6.999999
13
7.058823
23
29.750000
33
-6.999999
0
3DFACE
8
0
62
1
10
6.058824
20
-31.250000
30
-6.999999
11
6.058824
21
-31.250000
31
-11.000000
12
10.058823
22
-31.250000
32
-6.999999
13
10.058823
23
-31.250000
33
-6.999999
0
3DFACE
8
0
62
1
10
6.058824
20
-31.250000
30
-11.000000
11
10.058823
21
-31.250000
31
-11.000000
12
10.058823
22
-31.250000
32
-6.999999
13
10.058823
23
-31.250000
33
-6.999999
0
3DFACE
8
0
62
1
10
-6.941175
20
29.750000
30
-4.999999
11
-10.941174
21
-31.250000
31
-6.999999
12
-3.941177
22
29.750000
32
-4.999999
13
-3.941177
23
29.750000
33
-4.999999
0
3DFACE
8
0
62
1
10
-10.941174
20
-31.250000
30
-6.999999
11
-5.941175
21
-31.250000
31
-6.999999
12
-3.941177
22
29.750000
32
-4.999999
13
-3.941177
23
29.750000
33
-4.999999
0
3DFACE
8
0
62
1
10
-3.941177
20
29.750000
30
-4.999999
11
-5.941175
21
-31.250000
31
-6.999999
12
-3.941177
22
29.750000
32
-6.999999
13
-3.941177
23
29.750000
33
-6.999999
0
3DFACE
8
0
62
1
10
-5.941175
20
-31.250000
30
-6.999999
11
-5.941175
21
-31.250000
31
-11.000000
12
-3.941177
22
29.750000
32
-6.999999
13
-3.941177
23
29.750000
33
-6.999999
0
3DFACE
8
0
62
1
10
-3.941177
20
29.750000
30
-6.999999
11
-5.941175
21
-31.250000
31
-11.000000
12
-6.941175
22
29.750000
32
-6.999999
13
-6.941175
23
29.750000
33
-6.999999
0
3DFACE
8
0
62
1
10
-5.941175
20
-31.250000
30
-11.000000
11
-10.941174
21
-31.250000
31
-11.000000
12
-6.941175
22
29.750000
32
-6.999999
13
-6.941175
23
29.750000
33
-6.999999
0
3DFACE
8
0
62
1
10
-6.941175
20
29.750000
30
-6.999999
11
-10.941174
21
-31.250000
31
-11.000000
12
-6.941175
22
29.750000
32
-4.999999
13
-6.941175
23
29.750000
33
-4.999999
0
3DFACE
8
0
62
1
10
-10.941174
20
-31.250000
30
-11.000000
11
-10.941174
21
-31.250000
31
-6.999999
12
-6.941175
22
29.750000
32
-4.999999
13
-6.941175
23
29.750000
33
-4.999999
0
3DFACE
8
0
62
1
10
-6.941175
20
29.750000
30
-6.999999
11
-6.941175
21
29.750000
31
-4.999999
12
-3.941177
22
29.750000
32
-6.999999
13
-3.941177
23
29.750000
33
-6.999999
0
3DFACE
8
0
62
1
10
-6.941175
20
29.750000
30
-4.999999
11
-3.941177
21
29.750000
31
-4.999999
12
-3.941177
22
29.750000
32
-6.999999
13
-3.941177
23
29.750000
33
-6.999999
0
3DFACE
8
0
62
1
10
-10.941174
20
-31.250000
30
-6.999999
11
-10.941174
21
-31.250000
31
-11.000000
12
-5.941175
22
-31.250000
32
-6.999999
13
-5.941175
23
-31.250000
33
-6.999999
0
3DFACE
8
0
62
1
10
-10.941174
20
-31.250000
30
-11.000000
11
-5.941175
21
-31.250000
31
-11.000000
12
-5.941175
22
-31.250000
32
-6.999999
13
-5.941175
23
-31.250000
33
-6.999999
0
3DFACE
8
0
62
1
10
-7.941175
20
-5.250000
30
-6.999999
11
-7.941175
21
-8.250000
31
-6.999999
12
7.058823
22
-5.250000
32
-6.999999
13
7.058823
23
-5.250000
33
-6.999999
0
3DFACE
8
0
62
1
10
-7.941175
20
-8.250000
30
-6.999999
11
7.058823
21
-8.250000
31
-6.999999
12
7.058823
22
-5.250000
32
-6.999999
13
7.058823
23
-5.250000
33
-6.999999
0
3DFACE
8
0
62
1
10
7.058823
20
-5.250000
30
-9.000000
11
7.058823
21
-8.250000
31
-9.000000
12
-7.941175
22
-5.250000
32
-9.000000
13
-7.941175
23
-5.250000
33
-9.000000
0
3DFACE
8
0
62
1
10
7.058823
20
-8.250000
30
-9.000000
11
-7.941175
21
-8.250000
31
-9.000000
12
-7.941175
22
-5.250000
32
-9.000000
13
-7.941175
23
-5.250000
33
-9.000000
0
3DFACE
8
0
62
1
10
-7.941175
20
-5.250000
30
-9.000000
11
-7.941175
21
-5.250000
31
-6.999999
12
7.058823
22
-5.250000
32
-9.000000
13
7.058823
23
-5.250000
33
-9.000000
0
3DFACE
8
0
62
1
10
-7.941175
20
-5.250000
30
-6.999999
11
7.058823
21
-5.250000
31
-6.999999
12
7.058823
22
-5.250000
32
-9.000000
13
7.058823
23
-5.250000
33
-9.000000
0
3DFACE
8
0
62
1
10
-7.941175
20
-8.250000
30
-6.999999
11
-7.941175
21
-8.250000
31
-9.000000
12
7.058823
22
-8.250000
32
-6.999999
13
7.058823
23
-8.250000
33
-6.999999
0
3DFACE
8
0
62
1
10
-7.941175
20
-8.250000
30
-9.000000
11
7.058823
21
-8.250000
31
-9.000000
12
7.058823
22
-8.250000
32
-6.999999
13
7.058823
23
-8.250000
33
-6.999999
0
3DFACE
8
0
62
1
10
-7.941175
20
-5.250000
30
7.999993
11
-7.941175
21
-8.250000
31
7.999993
12
7.058823
22
-5.250000
32
7.999993
13
7.058823
23
-5.250000
33
7.999993
0
3DFACE
8
0
62
1
10
-7.941175
20
-8.250000
30
7.999993
11
7.058823
21
-8.250000
31
7.999993
12
7.058823
22
-5.250000
32
7.999993
13
7.058823
23
-5.250000
33
7.999993
0
3DFACE
8
0
62
1
10
7.058823
20
-5.250000
30
5.999997
11
7.058823
21
-8.250000
31
5.999997
12
-7.941175
22
-5.250000
32
5.999997
13
-7.941175
23
-5.250000
33
5.999997
0
3DFACE
8
0
62
1
10
7.058823
20
-8.250000
30
5.999997
11
-7.941175
21
-8.250000
31
5.999997
12
-7.941175
22
-5.250000
32
5.999997
13
-7.941175
23
-5.250000
33
5.999997
0
3DFACE
8
0
62
1
10
-7.941175
20
-5.250000
30
5.999997
11
-7.941175
21
-5.250000
31
7.999993
12
7.058823
22
-5.250000
32
5.999997
13
7.058823
23
-5.250000
33
5.999997
0
3DFACE
8
0
62
1
10
-7.941175
20
-5.250000
30
7.999993
11
7.058823
21
-5.250000
31
7.999993
12
7.058823
22
-5.250000
32
5.999997
13
7.058823
23
-5.250000
33
5.999997
0
3DFACE
8
0
62
1
10
-7.941175
20
-8.250000
30
7.999993
11
-7.941175
21
-8.250000
31
5.999997
12
7.058823
22
-8.250000
32
7.999993
13
7.058823
23
-8.250000
33
7.999993
0
3DFACE
8
0
62
1
10
-7.941175
20
-8.250000
30
5.999997
11
7.058823
21
-8.250000
31
5.999997
12
7.058823
22
-8.250000
32
7.999993
13
7.058823
23
-8.250000
33
7.999993
0
3DFACE
8
0
62
1
10
-5.941175
20
-5.250000
30
6.999997
11
-5.941175
21
-8.250000
31
6.999997
12
-5.941175
22
-5.250000
32
-8.000000
13
-5.941175
23
-5.250000
33
-8.000000
0
3DFACE
8
0
62
1
10
-5.941175
20
-8.250000
30
6.999997
11
-5.941175
21
-8.250000
31
-8.000000
12
-5.941175
22
-5.250000
32
-8.000000
13
-5.941175
23
-5.250000
33
-8.000000
0
3DFACE
8
0
62
1
10
-8.941174
20
-5.250000
30
-8.000000
11
-8.941174
21
-8.250000
31
-8.000000
12
-8.941174
22
-5.250000
32
6.999997
13
-8.941174
23
-5.250000
33
6.999997
0
3DFACE
8
0
62
1
10
-8.941174
20
-8.250000
30
-8.000000
11
-8.941174
21
-8.250000
31
6.999997
12
-8.941174
22
-5.250000
32
6.999997
13
-8.941174
23
-5.250000
33
6.999997
0
3DFACE
8
0
62
1
10
-8.941174
20
-5.250000
30
6.999997
11
-5.941175
21
-5.250000
31
6.999997
12
-8.941174
22
-5.250000
32
-8.000000
13
-8.941174
23
-5.250000
33
-8.000000
0
3DFACE
8
0
62
1
10
-5.941175
20
-5.250000
30
6.999997
11
-5.941175
21
-5.250000
31
-8.000000
12
-8.941174
22
-5.250000
32
-8.000000
13
-8.941174
23
-5.250000
33
-8.000000
0
3DFACE
8
0
62
1
10
-5.941175
20
-8.250000
30
6.999997
11
-8.941174
21
-8.250000
31
6.999997
12
-5.941175
22
-8.250000
32
-8.000000
13
-5.941175
23
-8.250000
33
-8.000000
0
3DFACE
8
0
62
1
10
-8.941174
20
-8.250000
30
6.999997
11
-8.941174
21
-8.250000
31
-8.000000
12
-5.941175
22
-8.250000
32
-8.000000
13
-5.941175
23
-8.250000
33
-8.000000
0
3DFACE
8
0
62
1
10
8.058822
20
-5.250000
30
6.999997
11
8.058822
21
-8.250000
31
6.999997
12
8.058822
22
-5.250000
32
-8.000000
13
8.058822
23
-5.250000
33
-8.000000
0
3DFACE
8
0
62
1
10
8.058822
20
-8.250000
30
6.999997
11
8.058822
21
-8.250000
31
-8.000000
12
8.058822
22
-5.250000
32
-8.000000
13
8.058822
23
-5.250000
33
-8.000000
0
3DFACE
8
0
62
1
10
6.058824
20
-5.250000
30
-8.000000
11
6.058824
21
-8.250000
31
-8.000000
12
6.058824
22
-5.250000
32
6.999997
13
6.058824
23
-5.250000
33
6.999997
0
3DFACE
8
0
62
1
10
6.058824
20
-8.250000
30
-8.000000
11
6.058824
21
-8.250000
31
6.999997
12
6.058824
22
-5.250000
32
6.999997
13
6.058824
23
-5.250000
33
6.999997
0
3DFACE
8
0
62
1
10
6.058824
20
-5.250000
30
6.999997
11
8.058822
21
-5.250000
31
6.999997
12
6.058824
22
-5.250000
32
-8.000000
13
6.058824
23
-5.250000
33
-8.000000
0
3DFACE
8
0
62
1
10
8.058822
20
-5.250000
30
6.999997
11
8.058822
21
-5.250000
31
-8.000000
12
6.058824
22
-5.250000
32
-8.000000
13
6.058824
23
-5.250000
33
-8.000000
0
3DFACE
8
0
62
1
10
8.058822
20
-8.250000
30
6.999997
11
6.058824
21
-8.250000
31
6.999997
12
8.058822
22
-8.250000
32
-8.000000
13
8.058822
23
-8.250000
33
-8.000000
0
3DFACE
8
0
62
1
10
6.058824
20
-8.250000
30
6.999997
11
6.058824
21
-8.250000
31
-8.000000
12
8.058822
22
-8.250000
32
-8.000000
13
8.058822
23
-8.250000
33
-8.000000
0
ENDSEC
0
EOF
