0
SECTION
2
HEADER
0
ENDSEC
0
SECTION
2
ENTITIES
0
3DFACE
8
0
62
1
10
-0.903494
20
7.058365
30
6.073925
11
-0.903494
21
5.941635
31
6.073925
12
11.696505
22
7.058365
32
6.073925
13
11.696505
23
7.058365
33
6.073925
0
3DFACE
8
0
62
1
10
-0.903494
20
5.941635
30
6.073925
11
11.696505
21
5.941635
31
6.073925
12
11.696505
22
7.058365
32
6.073925
13
11.696505
23
7.058365
33
6.073925
0
3DFACE
8
0
62
1
10
11.696505
20
7.058365
30
6.073925
11
11.696505
21
5.941635
31
6.073925
12
11.696505
22
7.058365
32
-6.051075
13
11.696505
23
7.058365
33
-6.051075
0
3DFACE
8
0
62
1
10
11.696505
20
5.941635
30
6.073925
11
11.696505
21
5.941635
31
-6.051075
12
11.696505
22
7.058365
32
-6.051075
13
11.696505
23
7.058365
33
-6.051075
0
3DFACE
8
0
62
1
10
11.696505
20
7.058365
30
-6.051075
11
11.696505
21
5.941635
31
-6.051075
12
-0.903494
22
7.058365
32
-6.051075
13
-0.903494
23
7.058365
33
-6.051075
0
3DFACE
8
0
62
1
10
11.696505
20
5.941635
30
-6.051075
11
-0.903494
21
5.941635
31
-6.051075
12
-0.903494
22
7.058365
32
-6.051075
13
-0.903494
23
7.058365
33
-6.051075
0
3DFACE
8
0
62
1
10
-0.903494
20
7.058365
30
-6.051075
11
-0.903494
21
5.941635
31
-6.051075
12
-0.903494
22
7.058365
32
6.073925
13
-0.903494
23
7.058365
33
6.073925
0
3DFACE
8
0
62
1
10
-0.903494
20
5.941635
30
-6.051075
11
-0.903494
21
5.941635
31
6.073925
12
-0.903494
22
7.058365
32
6.073925
13
-0.903494
23
7.058365
33
6.073925
0
3DFACE
8
0
62
1
10
-0.903494
20
7.058365
30
-6.051075
11
-0.903494
21
7.058365
31
6.073925
12
11.696505
22
7.058365
32
-6.051075
13
11.696505
23
7.058365
33
-6.051075
0
3DFACE
8
0
62
1
10
-0.903494
20
7.058365
30
6.073925
11
11.696505
21
7.058365
31
6.073925
12
11.696505
22
7.058365
32
-6.051075
13
11.696505
23
7.058365
33
-6.051075
0
3DFACE
8
0
62
1
10
-0.903494
20
5.941635
30
6.073925
11
-0.903494
21
5.941635
31
-6.051075
12
11.696505
22
5.941635
32
6.073925
13
11.696505
23
5.941635
33
6.073925
0
3DFACE
8
0
62
1
10
-0.903494
20
5.941635
30
-6.051075
11
11.696505
21
5.941635
31
-6.051075
12
11.696505
22
5.941635
32
6.073925
13
11.696505
23
5.941635
33
6.073925
0
3DFACE
8
0
62
1
10
0.208199
20
7.517451
30
4.994456
11
-0.528644
21
6.545049
31
5.713206
12
10.690075
22
7.517451
32
4.994456
13
10.690075
23
7.517451
33
4.994456
0
3DFACE
8
0
62
1
10
-0.528644
20
6.545049
30
5.713206
11
11.321654
21
6.545049
31
5.713206
12
10.690075
22
7.517451
32
4.994456
13
10.690075
23
7.517451
33
4.994456
0
3DFACE
8
0
62
1
10
10.690075
20
7.517451
30
4.994456
11
11.321654
21
6.545049
31
5.713206
12
10.690076
22
7.517451
32
-5.058780
13
10.690076
23
7.517451
33
-5.058780
0
3DFACE
8
0
62
1
10
11.321654
20
6.545049
30
5.713206
11
11.321654
21
6.545049
31
-5.690356
12
10.690076
22
7.517451
32
-5.058780
13
10.690076
23
7.517451
33
-5.058780
0
3DFACE
8
0
62
1
10
10.690076
20
7.517451
30
-5.058780
11
11.321654
21
6.545049
31
-5.690356
12
0.196356
22
7.517451
32
-5.006145
13
0.196356
23
7.517451
33
-5.006145
0
3DFACE
8
0
62
1
10
11.321654
20
6.545049
30
-5.690356
11
-0.528644
21
6.545049
31
-5.690356
12
0.196356
22
7.517451
32
-5.006145
13
0.196356
23
7.517451
33
-5.006145
0
3DFACE
8
0
62
1
10
0.196356
20
7.517451
30
-5.006145
11
-0.528644
21
6.545049
31
-5.690356
12
0.208199
22
7.517451
32
4.994456
13
0.208199
23
7.517451
33
4.994456
0
3DFACE
8
0
62
1
10
-0.528644
20
6.545049
30
-5.690356
11
-0.528644
21
6.545049
31
5.713206
12
0.208199
22
7.517451
32
4.994456
13
0.208199
23
7.517451
33
4.994456
0
3DFACE
8
0
62
1
10
0.196356
20
7.517451
30
-5.006145
11
0.208199
21
7.517451
31
4.994456
12
10.690076
22
7.517451
32
-5.058780
13
10.690076
23
7.517451
33
-5.058780
0
3DFACE
8
0
62
1
10
0.208199
20
7.517451
30
4.994456
11
10.690075
21
7.517451
31
4.994456
12
10.690076
22
7.517451
32
-5.058780
13
10.690076
23
7.517451
33
-5.058780
0
3DFACE
8
0
62
1
10
-0.528644
20
6.545049
30
5.713206
11
-0.528644
21
6.545049
31
-5.690356
12
11.321654
22
6.545049
32
5.713206
13
11.321654
23
6.545049
33
5.713206
0
3DFACE
8
0
62
1
10
-0.528644
20
6.545049
30
-5.690356
11
11.321654
21
6.545049
31
-5.690356
12
11.321654
22
6.545049
32
5.713206
13
11.321654
23
6.545049
33
5.713206
0
3DFACE
8
0
62
1
10
-0.896805
20
6.062857
30
6.075377
11
-0.476601
21
-6.312857
31
5.655171
12
0.896808
22
6.062857
32
6.075377
13
0.896808
23
6.062857
33
6.075377
0
3DFACE
8
0
62
1
10
-0.476601
20
-6.312857
30
5.655171
11
0.476601
21
-6.312857
31
5.655171
12
0.896808
22
6.062857
32
6.075377
13
0.896808
23
6.062857
33
6.075377
0
3DFACE
8
0
62
1
10
0.896808
20
6.062857
30
6.075377
11
0.476601
21
-6.312857
31
5.655171
12
0.896808
22
6.062857
32
4.281764
13
0.896808
23
6.062857
33
4.281764
0
3DFACE
8
0
62
1
10
0.476601
20
-6.312857
30
5.655171
11
0.476601
21
-6.312857
31
4.701970
12
0.896808
22
6.062857
32
4.281764
13
0.896808
23
6.062857
33
4.281764
0
3DFACE
8
0
62
1
10
0.896808
20
6.062857
30
4.281764
11
0.476601
21
-6.312857
31
4.701970
12
-0.896805
22
6.062857
32
4.281764
13
-0.896805
23
6.062857
33
4.281764
0
3DFACE
8
0
62
1
10
0.476601
20
-6.312857
30
4.701970
11
-0.476601
21
-6.312857
31
4.701970
12
-0.896805
22
6.062857
32
4.281764
13
-0.896805
23
6.062857
33
4.281764
0
3DFACE
8
0
62
1
10
-0.896805
20
6.062857
30
4.281764
11
-0.476601
21
-6.312857
31
4.701970
12
-0.896805
22
6.062857
32
6.075377
13
-0.896805
23
6.062857
33
6.075377
0
3DFACE
8
0
62
1
10
-0.476601
20
-6.312857
30
4.701970
11
-0.476601
21
-6.312857
31
5.655171
12
-0.896805
22
6.062857
32
6.075377
13
-0.896805
23
6.062857
33
6.075377
0
3DFACE
8
0
62
1
10
-0.896805
20
6.062857
30
4.281764
11
-0.896805
21
6.062857
31
6.075377
12
0.896808
22
6.062857
32
4.281764
13
0.896808
23
6.062857
33
4.281764
0
3DFACE
8
0
62
1
10
-0.896805
20
6.062857
30
6.075377
11
0.896808
21
6.062857
31
6.075377
12
0.896808
22
6.062857
32
4.281764
13
0.896808
23
6.062857
33
4.281764
0
3DFACE
8
0
62
1
10
-0.476601
20
-6.312857
30
5.655171
11
-0.476601
21
-6.312857
31
4.701970
12
0.476601
22
-6.312857
32
5.655171
13
0.476601
23
-6.312857
33
5.655171
0
3DFACE
8
0
62
1
10
-0.476601
20
-6.312857
30
4.701970
11
0.476601
21
-6.312857
31
4.701970
12
0.476601
22
-6.312857
32
5.655171
13
0.476601
23
-6.312857
33
5.655171
0
3DFACE
8
0
62
1
10
9.906767
20
6.062857
30
6.093234
11
10.326970
21
-6.312857
31
5.673028
12
11.700379
22
6.062857
32
6.093234
13
11.700379
23
6.062857
33
6.093234
0
3DFACE
8
0
62
1
10
10.326970
20
-6.312857
30
5.673028
11
11.280171
21
-6.312857
31
5.673028
12
11.700379
22
6.062857
32
6.093234
13
11.700379
23
6.062857
33
6.093234
0
3DFACE
8
0
62
1
10
11.700379
20
6.062857
30
6.093234
11
11.280171
21
-6.312857
31
5.673028
12
11.700379
22
6.062857
32
4.299621
13
11.700379
23
6.062857
33
4.299621
0
3DFACE
8
0
62
1
10
11.280171
20
-6.312857
30
5.673028
11
11.280171
21
-6.312857
31
4.719827
12
11.700379
22
6.062857
32
4.299621
13
11.700379
23
6.062857
33
4.299621
0
3DFACE
8
0
62
1
10
11.700379
20
6.062857
30
4.299621
11
11.280171
21
-6.312857
31
4.719827
12
9.906767
22
6.062857
32
4.299621
13
9.906767
23
6.062857
33
4.299621
0
3DFACE
8
0
62
1
10
11.280171
20
-6.312857
30
4.719827
11
10.326970
21
-6.312857
31
4.719827
12
9.906767
22
6.062857
32
4.299621
13
9.906767
23
6.062857
33
4.299621
0
3DFACE
8
0
62
1
10
9.906767
20
6.062857
30
4.299621
11
10.326970
21
-6.312857
31
4.719827
12
9.906767
22
6.062857
32
6.093234
13
9.906767
23
6.062857
33
6.093234
0
3DFACE
8
0
62
1
10
10.326970
20
-6.312857
30
4.719827
11
10.326970
21
-6.312857
31
5.673028
12
9.906767
22
6.062857
32
6.093234
13
9.906767
23
6.062857
33
6.093234
0
3DFACE
8
0
62
1
10
9.906767
20
6.062857
30
4.299621
11
9.906767
21
6.062857
31
6.093234
12
11.700379
22
6.062857
32
4.299621
13
11.700379
23
6.062857
33
4.299621
0
3DFACE
8
0
62
1
10
9.906767
20
6.062857
30
6.093234
11
11.700379
21
6.062857
31
6.093234
12
11.700379
22
6.062857
32
4.299621
13
11.700379
23
6.062857
33
4.299621
0
3DFACE
8
0
62
1
10
10.326970
20
-6.312857
30
5.673028
11
10.326970
21
-6.312857
31
4.719827
12
11.280171
22
-6.312857
32
5.673028
13
11.280171
23
-6.312857
33
5.673028
0
3DFACE
8
0
62
1
10
10.326970
20
-6.312857
30
4.719827
11
11.280171
21
-6.312857
31
4.719827
12
11.280171
22
-6.312857
32
5.673028
13
11.280171
23
-6.312857
33
5.673028
0
3DFACE
8
0
62
1
10
9.906767
20
6.062857
30
-4.263908
11
10.326970
21
-6.312857
31
-4.684114
12
11.700379
22
6.062857
32
-4.263908
13
11.700379
23
6.062857
33
-4.263908
0
3DFACE
8
0
62
1
10
10.326970
20
-6.312857
30
-4.684114
11
11.280171
21
-6.312857
31
-4.684114
12
11.700379
22
6.062857
32
-4.263908
13
11.700379
23
6.062857
33
-4.263908
0
3DFACE
8
0
62
1
10
11.700379
20
6.062857
30
-4.263908
11
11.280171
21
-6.312857
31
-4.684114
12
11.700379
22
6.062857
32
-6.057521
13
11.700379
23
6.062857
33
-6.057521
0
3DFACE
8
0
62
1
10
11.280171
20
-6.312857
30
-4.684114
11
11.280171
21
-6.312857
31
-5.637315
12
11.700379
22
6.062857
32
-6.057521
13
11.700379
23
6.062857
33
-6.057521
0
3DFACE
8
0
62
1
10
11.700379
20
6.062857
30
-6.057521
11
11.280171
21
-6.312857
31
-5.637315
12
9.906767
22
6.062857
32
-6.057521
13
9.906767
23
6.062857
33
-6.057521
0
3DFACE
8
0
62
1
10
11.280171
20
-6.312857
30
-5.637315
11
10.326970
21
-6.312857
31
-5.637315
12
9.906767
22
6.062857
32
-6.057521
13
9.906767
23
6.062857
33
-6.057521
0
3DFACE
8
0
62
1
10
9.906767
20
6.062857
30
-6.057521
11
10.326970
21
-6.312857
31
-5.637315
12
9.906767
22
6.062857
32
-4.263908
13
9.906767
23
6.062857
33
-4.263908
0
3DFACE
8
0
62
1
10
10.326970
20
-6.312857
30
-5.637315
11
10.326970
21
-6.312857
31
-4.684114
12
9.906767
22
6.062857
32
-4.263908
13
9.906767
23
6.062857
33
-4.263908
0
3DFACE
8
0
62
1
10
9.906767
20
6.062857
30
-6.057521
11
9.906767
21
6.062857
31
-4.263908
12
11.700379
22
6.062857
32
-6.057521
13
11.700379
23
6.062857
33
-6.057521
0
3DFACE
8
0
62
1
10
9.906767
20
6.062857
30
-4.263908
11
11.700379
21
6.062857
31
-4.263908
12
11.700379
22
6.062857
32
-6.057521
13
11.700379
23
6.062857
33
-6.057521
0
3DFACE
8
0
62
1
10
10.326970
20
-6.312857
30
-4.684114
11
10.326970
21
-6.312857
31
-5.637315
12
11.280171
22
-6.312857
32
-4.684114
13
11.280171
23
-6.312857
33
-4.684114
0
3DFACE
8
0
62
1
10
10.326970
20
-6.312857
30
-5.637315
11
11.280171
21
-6.312857
31
-5.637315
12
11.280171
22
-6.312857
32
-4.684114
13
11.280171
23
-6.312857
33
-4.684114
0
3DFACE
8
0
62
1
10
-0.899673
20
19.120064
30
-4.515322
11
-0.899673
21
7.038022
31
-4.515322
12
0.896245
22
19.120064
32
-4.515322
13
0.896245
23
19.120064
33
-4.515322
0
3DFACE
8
0
62
1
10
-0.899673
20
7.038022
30
-4.515322
11
0.896245
21
7.038022
31
-4.515322
12
0.896245
22
19.120064
32
-4.515322
13
0.896245
23
19.120064
33
-4.515322
0
3DFACE
8
0
62
1
10
0.896245
20
19.120064
30
-4.515322
11
0.896245
21
7.038022
31
-4.515322
12
0.896245
22
19.120064
32
-6.055097
13
0.896245
23
19.120064
33
-6.055097
0
3DFACE
8
0
62
1
10
0.896245
20
7.038022
30
-4.515322
11
0.896245
21
7.038022
31
-6.055097
12
0.896245
22
19.120064
32
-6.055097
13
0.896245
23
19.120064
33
-6.055097
0
3DFACE
8
0
62
1
10
0.896245
20
19.120064
30
-6.055097
11
0.896245
21
7.038022
31
-6.055097
12
-0.899673
22
19.120064
32
-6.055097
13
-0.899673
23
19.120064
33
-6.055097
0
3DFACE
8
0
62
1
10
0.896245
20
7.038022
30
-6.055097
11
-0.899673
21
7.038022
31
-6.055097
12
-0.899673
22
19.120064
32
-6.055097
13
-0.899673
23
19.120064
33
-6.055097
0
3DFACE
8
0
62
1
10
-0.899673
20
19.120064
30
-6.055097
11
-0.899673
21
7.038022
31
-6.055097
12
-0.899673
22
19.120064
32
-4.515322
13
-0.899673
23
19.120064
33
-4.515322
0
3DFACE
8
0
62
1
10
-0.899673
20
7.038022
30
-6.055097
11
-0.899673
21
7.038022
31
-4.515322
12
-0.899673
22
19.120064
32
-4.515322
13
-0.899673
23
19.120064
33
-4.515322
0
3DFACE
8
0
62
1
10
-0.899673
20
19.120064
30
-6.055097
11
-0.899673
21
19.120064
31
-4.515322
12
0.896245
22
19.120064
32
-6.055097
13
0.896245
23
19.120064
33
-6.055097
0
3DFACE
8
0
62
1
10
-0.899673
20
19.120064
30
-4.515322
11
0.896245
21
19.120064
31
-4.515322
12
0.896245
22
19.120064
32
-6.055097
13
0.896245
23
19.120064
33
-6.055097
0
3DFACE
8
0
62
1
10
-0.899673
20
7.038022
30
-4.515322
11
-0.899673
21
7.038022
31
-6.055097
12
0.896245
22
7.038022
32
-4.515322
13
0.896245
23
7.038022
33
-4.515322
0
3DFACE
8
0
62
1
10
-0.899673
20
7.038022
30
-6.055097
11
0.896245
21
7.038022
31
-6.055097
12
0.896245
22
7.038022
32
-4.515322
13
0.896245
23
7.038022
33
-4.515322
0
3DFACE
8
0
62
1
10
9.896246
20
19.120064
30
-4.515321
11
9.896246
21
7.038022
31
-4.515321
12
11.692164
22
19.120064
32
-4.515321
13
11.692164
23
19.120064
33
-4.515321
0
3DFACE
8
0
62
1
10
9.896246
20
7.038022
30
-4.515321
11
11.692164
21
7.038022
31
-4.515321
12
11.692164
22
19.120064
32
-4.515321
13
11.692164
23
19.120064
33
-4.515321
0
3DFACE
8
0
62
1
10
11.692164
20
19.120064
30
-4.515321
11
11.692164
21
7.038022
31
-4.515321
12
11.692164
22
19.120064
32
-6.055096
13
11.692164
23
19.120064
33
-6.055096
0
3DFACE
8
0
62
1
10
11.692164
20
7.038022
30
-4.515321
11
11.692164
21
7.038022
31
-6.055096
12
11.692164
22
19.120064
32
-6.055096
13
11.692164
23
19.120064
33
-6.055096
0
3DFACE
8
0
62
1
10
11.692164
20
19.120064
30
-6.055096
11
11.692164
21
7.038022
31
-6.055096
12
9.896246
22
19.120064
32
-6.055096
13
9.896246
23
19.120064
33
-6.055096
0
3DFACE
8
0
62
1
10
11.692164
20
7.038022
30
-6.055096
11
9.896246
21
7.038022
31
-6.055096
12
9.896246
22
19.120064
32
-6.055096
13
9.896246
23
19.120064
33
-6.055096
0
3DFACE
8
0
62
1
10
9.896246
20
19.120064
30
-6.055096
11
9.896246
21
7.038022
31
-6.055096
12
9.896246
22
19.120064
32
-4.515321
13
9.896246
23
19.120064
33
-4.515321
0
3DFACE
8
0
62
1
10
9.896246
20
7.038022
30
-6.055096
11
9.896246
21
7.038022
31
-4.515321
12
9.896246
22
19.120064
32
-4.515321
13
9.896246
23
19.120064
33
-4.515321
0
3DFACE
8
0
62
1
10
9.896246
20
19.120064
30
-6.055096
11
9.896246
21
19.120064
31
-4.515321
12
11.692164
22
19.120064
32
-6.055096
13
11.692164
23
19.120064
33
-6.055096
0
3DFACE
8
0
62
1
10
9.896246
20
19.120064
30
-4.515321
11
11.692164
21
19.120064
31
-4.515321
12
11.692164
22
19.120064
32
-6.055096
13
11.692164
23
19.120064
33
-6.055096
0
3DFACE
8
0
62
1
10
9.896246
20
7.038022
30
-4.515321
11
9.896246
21
7.038022
31
-6.055096
12
11.692164
22
7.038022
32
-4.515321
13
11.692164
23
7.038022
33
-4.515321
0
3DFACE
8
0
62
1
10
9.896246
20
7.038022
30
-6.055096
11
11.692164
21
7.038022
31
-6.055096
12
11.692164
22
7.038022
32
-4.515321
13
11.692164
23
7.038022
33
-4.515321
0
3DFACE
8
0
62
1
10
4.340207
20
21.232374
30
-4.518715
11
4.340207
21
18.748013
31
-4.518715
12
5.537486
22
20.099039
32
-4.518715
13
5.537486
23
20.099039
33
-4.518715
0
3DFACE
8
0
62
1
10
4.340207
20
18.748013
30
-4.518715
11
5.537486
21
17.631348
31
-4.518715
12
5.537486
22
20.099039
32
-4.518715
13
5.537486
23
20.099039
33
-4.518715
0
3DFACE
8
0
62
1
10
5.537486
20
20.099039
30
-4.518715
11
5.537486
21
17.631348
31
-4.518715
12
5.537486
22
20.099039
32
-6.069741
13
5.537486
23
20.099039
33
-6.069741
0
3DFACE
8
0
62
1
10
5.537486
20
17.631348
30
-4.518715
11
5.537486
21
17.631348
31
-6.069741
12
5.537486
22
20.099039
32
-6.069741
13
5.537486
23
20.099039
33
-6.069741
0
3DFACE
8
0
62
1
10
5.537486
20
20.099039
30
-6.069741
11
5.537486
21
17.631348
31
-6.069741
12
4.340207
22
21.232374
32
-6.069741
13
4.340207
23
21.232374
33
-6.069741
0
3DFACE
8
0
62
1
10
5.537486
20
17.631348
30
-6.069741
11
4.340207
21
18.748013
31
-6.069741
12
4.340207
22
21.232374
32
-6.069741
13
4.340207
23
21.232374
33
-6.069741
0
3DFACE
8
0
62
1
10
-0.937982
20
20.099039
30
-6.069763
11
-0.937982
21
17.614679
31
-6.069763
12
-0.937982
22
20.099039
32
-4.518738
13
-0.937982
23
20.099039
33
-4.518738
0
3DFACE
8
0
62
1
10
-0.937982
20
17.614679
30
-6.069763
11
-0.937982
21
17.614679
31
-4.518738
12
-0.937982
22
20.099039
32
-4.518738
13
-0.937982
23
20.099039
33
-4.518738
0
3DFACE
8
0
62
1
10
4.340207
20
21.232374
30
-6.069741
11
4.340207
21
21.232374
31
-4.518715
12
5.537486
22
20.099039
32
-6.069741
13
5.537486
23
20.099039
33
-6.069741
0
3DFACE
8
0
62
1
10
4.340207
20
21.232374
30
-4.518715
11
5.537486
21
20.099039
31
-4.518715
12
5.537486
22
20.099039
32
-6.069741
13
5.537486
23
20.099039
33
-6.069741
0
3DFACE
8
0
62
1
10
4.340207
20
18.748013
30
-4.518715
11
4.340207
21
18.748013
31
-6.069741
12
5.537486
22
17.631348
32
-4.518715
13
5.537486
23
17.631348
33
-4.518715
0
3DFACE
8
0
62
1
10
4.340207
20
18.748013
30
-6.069741
11
5.537486
21
17.631348
31
-6.069741
12
5.537486
22
17.631348
32
-4.518715
13
5.537486
23
17.631348
33
-4.518715
0
3DFACE
8
0
62
1
10
3.081562
20
21.915707
30
-6.069763
11
4.340207
21
21.232374
31
-6.069741
12
4.340207
22
18.748013
32
-6.069741
13
4.340207
23
18.748013
33
-6.069741
0
3DFACE
8
0
62
1
10
3.081562
20
21.915707
30
-6.069763
11
4.340207
21
18.748013
31
-6.069741
12
3.081562
22
19.348015
32
-6.069763
13
3.081562
23
19.348015
33
-6.069763
0
3DFACE
8
0
62
1
10
3.081562
20
21.915707
30
-4.518738
11
4.340207
21
21.232374
31
-4.518715
12
4.340207
22
21.232374
32
-6.069741
13
4.340207
23
21.232374
33
-6.069741
0
3DFACE
8
0
62
1
10
3.081562
20
21.915707
30
-4.518738
11
4.340207
21
21.232374
31
-6.069741
12
3.081562
22
21.915707
32
-6.069763
13
3.081562
23
21.915707
33
-6.069763
0
3DFACE
8
0
62
1
10
3.081562
20
19.348015
30
-6.069763
11
4.340207
21
18.748013
31
-6.069741
12
4.340207
22
18.748013
32
-4.518715
13
4.340207
23
18.748013
33
-4.518715
0
3DFACE
8
0
62
1
10
3.081562
20
19.348015
30
-6.069763
11
4.340207
21
18.748013
31
-4.518715
12
3.081562
22
19.348015
32
-4.518738
13
3.081562
23
19.348015
33
-4.518738
0
3DFACE
8
0
62
1
10
3.081562
20
19.348015
30
-4.518738
11
4.340207
21
18.748013
31
-4.518715
12
4.340207
22
21.232374
32
-4.518715
13
4.340207
23
21.232374
33
-4.518715
0
3DFACE
8
0
62
1
10
3.081562
20
19.348015
30
-4.518738
11
4.340207
21
21.232374
31
-4.518715
12
3.081562
22
21.915707
32
-4.518738
13
3.081562
23
21.915707
33
-4.518738
0
3DFACE
8
0
62
1
10
1.660559
20
21.915707
30
-6.069763
11
3.081562
21
21.915707
31
-6.069763
12
3.081562
22
19.348015
32
-6.069763
13
3.081562
23
19.348015
33
-6.069763
0
3DFACE
8
0
62
1
10
1.660559
20
21.915707
30
-6.069763
11
3.081562
21
19.348015
31
-6.069763
12
1.660559
22
19.348015
32
-6.069763
13
1.660559
23
19.348015
33
-6.069763
0
3DFACE
8
0
62
1
10
1.660559
20
21.915707
30
-4.518738
11
3.081562
21
21.915707
31
-4.518738
12
3.081562
22
21.915707
32
-6.069763
13
3.081562
23
21.915707
33
-6.069763
0
3DFACE
8
0
62
1
10
1.660559
20
21.915707
30
-4.518738
11
3.081562
21
21.915707
31
-6.069763
12
1.660559
22
21.915707
32
-6.069763
13
1.660559
23
21.915707
33
-6.069763
0
3DFACE
8
0
62
1
10
1.660559
20
19.348015
30
-6.069763
11
3.081562
21
19.348015
31
-6.069763
12
3.081562
22
19.348015
32
-4.518738
13
3.081562
23
19.348015
33
-4.518738
0
3DFACE
8
0
62
1
10
1.660559
20
19.348015
30
-6.069763
11
3.081562
21
19.348015
31
-4.518738
12
1.660559
22
19.348015
32
-4.518738
13
1.660559
23
19.348015
33
-4.518738
0
3DFACE
8
0
62
1
10
1.660559
20
19.348015
30
-4.518738
11
3.081562
21
19.348015
31
-4.518738
12
3.081562
22
21.915707
32
-4.518738
13
3.081562
23
21.915707
33
-4.518738
0
3DFACE
8
0
62
1
10
1.660559
20
19.348015
30
-4.518738
11
3.081562
21
21.915707
31
-4.518738
12
1.660559
22
21.915707
32
-4.518738
13
1.660559
23
21.915707
33
-4.518738
0
3DFACE
8
0
62
1
10
0.361295
20
21.232374
30
-6.069763
11
1.660559
21
21.915707
31
-6.069763
12
1.660559
22
19.348015
32
-6.069763
13
1.660559
23
19.348015
33
-6.069763
0
3DFACE
8
0
62
1
10
0.361295
20
21.232374
30
-6.069763
11
1.660559
21
19.348015
31
-6.069763
12
0.361295
22
18.714680
32
-6.069763
13
0.361295
23
18.714680
33
-6.069763
0
3DFACE
8
0
62
1
10
0.361295
20
21.232374
30
-4.518738
11
1.660559
21
21.915707
31
-4.518738
12
1.660559
22
21.915707
32
-6.069763
13
1.660559
23
21.915707
33
-6.069763
0
3DFACE
8
0
62
1
10
0.361295
20
21.232374
30
-4.518738
11
1.660559
21
21.915707
31
-6.069763
12
0.361295
22
21.232374
32
-6.069763
13
0.361295
23
21.232374
33
-6.069763
0
3DFACE
8
0
62
1
10
0.361295
20
18.714680
30
-6.069763
11
1.660559
21
19.348015
31
-6.069763
12
1.660559
22
19.348015
32
-4.518738
13
1.660559
23
19.348015
33
-4.518738
0
3DFACE
8
0
62
1
10
0.361295
20
18.714680
30
-6.069763
11
1.660559
21
19.348015
31
-4.518738
12
0.361295
22
18.714680
32
-4.518738
13
0.361295
23
18.714680
33
-4.518738
0
3DFACE
8
0
62
1
10
0.361295
20
18.714680
30
-4.518738
11
1.660559
21
19.348015
31
-4.518738
12
1.660559
22
21.915707
32
-4.518738
13
1.660559
23
21.915707
33
-4.518738
0
3DFACE
8
0
62
1
10
0.361295
20
18.714680
30
-4.518738
11
1.660559
21
21.915707
31
-4.518738
12
0.361295
22
21.232374
32
-4.518738
13
0.361295
23
21.232374
33
-4.518738
0
3DFACE
8
0
62
1
10
-0.937982
20
20.099039
30
-6.069763
11
0.361295
21
21.232374
31
-6.069763
12
0.361295
22
18.714680
32
-6.069763
13
0.361295
23
18.714680
33
-6.069763
0
3DFACE
8
0
62
1
10
-0.937982
20
20.099039
30
-6.069763
11
0.361295
21
18.714680
31
-6.069763
12
-0.937982
22
17.614679
32
-6.069763
13
-0.937982
23
17.614679
33
-6.069763
0
3DFACE
8
0
62
1
10
-0.937982
20
20.099039
30
-4.518738
11
0.361295
21
21.232374
31
-4.518738
12
0.361295
22
21.232374
32
-6.069763
13
0.361295
23
21.232374
33
-6.069763
0
3DFACE
8
0
62
1
10
-0.937982
20
20.099039
30
-4.518738
11
0.361295
21
21.232374
31
-6.069763
12
-0.937982
22
20.099039
32
-6.069763
13
-0.937982
23
20.099039
33
-6.069763
0
3DFACE
8
0
62
1
10
-0.937982
20
17.614679
30
-6.069763
11
0.361295
21
18.714680
31
-6.069763
12
0.361295
22
18.714680
32
-4.518738
13
0.361295
23
18.714680
33
-4.518738
0
3DFACE
8
0
62
1
10
-0.937982
20
17.614679
30
-6.069763
11
0.361295
21
18.714680
31
-4.518738
12
-0.937982
22
17.614679
32
-4.518738
13
-0.937982
23
17.614679
33
-4.518738
0
3DFACE
8
0
62
1
10
-0.937982
20
17.614679
30
-4.518738
11
0.361295
21
18.714680
31
-4.518738
12
0.361295
22
21.232374
32
-4.518738
13
0.361295
23
21.232374
33
-4.518738
0
3DFACE
8
0
62
1
10
-0.937982
20
17.614679
30
-4.518738
11
0.361295
21
21.232374
31
-4.518738
12
-0.937982
22
20.099039
32
-4.518738
13
-0.937982
23
20.099039
33
-4.518738
0
3DFACE
8
0
62
1
10
10.487267
20
21.232374
30
-4.518715
11
10.487267
21
18.748013
31
-4.518715
12
11.684546
22
20.099039
32
-4.518715
13
11.684546
23
20.099039
33
-4.518715
0
3DFACE
8
0
62
1
10
10.487267
20
18.748013
30
-4.518715
11
11.684546
21
17.631348
31
-4.518715
12
11.684546
22
20.099039
32
-4.518715
13
11.684546
23
20.099039
33
-4.518715
0
3DFACE
8
0
62
1
10
11.684546
20
20.099039
30
-4.518715
11
11.684546
21
17.631348
31
-4.518715
12
11.684546
22
20.099039
32
-6.069741
13
11.684546
23
20.099039
33
-6.069741
0
3DFACE
8
0
62
1
10
11.684546
20
17.631348
30
-4.518715
11
11.684546
21
17.631348
31
-6.069741
12
11.684546
22
20.099039
32
-6.069741
13
11.684546
23
20.099039
33
-6.069741
0
3DFACE
8
0
62
1
10
11.684546
20
20.099039
30
-6.069741
11
11.684546
21
17.631348
31
-6.069741
12
10.487267
22
21.232374
32
-6.069741
13
10.487267
23
21.232374
33
-6.069741
0
3DFACE
8
0
62
1
10
11.684546
20
17.631348
30
-6.069741
11
10.487267
21
18.748013
31
-6.069741
12
10.487267
22
21.232374
32
-6.069741
13
10.487267
23
21.232374
33
-6.069741
0
3DFACE
8
0
62
1
10
5.209077
20
20.099039
30
-6.069763
11
5.209077
21
17.614679
31
-6.069763
12
5.209077
22
20.099039
32
-4.518738
13
5.209077
23
20.099039
33
-4.518738
0
3DFACE
8
0
62
1
10
5.209077
20
17.614679
30
-6.069763
11
5.209077
21
17.614679
31
-4.518738
12
5.209077
22
20.099039
32
-4.518738
13
5.209077
23
20.099039
33
-4.518738
0
3DFACE
8
0
62
1
10
10.487267
20
21.232374
30
-6.069741
11
10.487267
21
21.232374
31
-4.518715
12
11.684546
22
20.099039
32
-6.069741
13
11.684546
23
20.099039
33
-6.069741
0
3DFACE
8
0
62
1
10
10.487267
20
21.232374
30
-4.518715
11
11.684546
21
20.099039
31
-4.518715
12
11.684546
22
20.099039
32
-6.069741
13
11.684546
23
20.099039
33
-6.069741
0
3DFACE
8
0
62
1
10
10.487267
20
18.748013
30
-4.518715
11
10.487267
21
18.748013
31
-6.069741
12
11.684546
22
17.631348
32
-4.518715
13
11.684546
23
17.631348
33
-4.518715
0
3DFACE
8
0
62
1
10
10.487267
20
18.748013
30
-6.069741
11
11.684546
21
17.631348
31
-6.069741
12
11.684546
22
17.631348
32
-4.518715
13
11.684546
23
17.631348
33
-4.518715
0
3DFACE
8
0
62
1
10
9.228621
20
21.915707
30
-6.069763
11
10.487267
21
21.232374
31
-6.069741
12
10.487267
22
18.748013
32
-6.069741
13
10.487267
23
18.748013
33
-6.069741
0
3DFACE
8
0
62
1
10
9.228621
20
21.915707
30
-6.069763
11
10.487267
21
18.748013
31
-6.069741
12
9.228621
22
19.348015
32
-6.069763
13
9.228621
23
19.348015
33
-6.069763
0
3DFACE
8
0
62
1
10
9.228621
20
21.915707
30
-4.518738
11
10.487267
21
21.232374
31
-4.518715
12
10.487267
22
21.232374
32
-6.069741
13
10.487267
23
21.232374
33
-6.069741
0
3DFACE
8
0
62
1
10
9.228621
20
21.915707
30
-4.518738
11
10.487267
21
21.232374
31
-6.069741
12
9.228621
22
21.915707
32
-6.069763
13
9.228621
23
21.915707
33
-6.069763
0
3DFACE
8
0
62
1
10
9.228621
20
19.348015
30
-6.069763
11
10.487267
21
18.748013
31
-6.069741
12
10.487267
22
18.748013
32
-4.518715
13
10.487267
23
18.748013
33
-4.518715
0
3DFACE
8
0
62
1
10
9.228621
20
19.348015
30
-6.069763
11
10.487267
21
18.748013
31
-4.518715
12
9.228621
22
19.348015
32
-4.518738
13
9.228621
23
19.348015
33
-4.518738
0
3DFACE
8
0
62
1
10
9.228621
20
19.348015
30
-4.518738
11
10.487267
21
18.748013
31
-4.518715
12
10.487267
22
21.232374
32
-4.518715
13
10.487267
23
21.232374
33
-4.518715
0
3DFACE
8
0
62
1
10
9.228621
20
19.348015
30
-4.518738
11
10.487267
21
21.232374
31
-4.518715
12
9.228621
22
21.915707
32
-4.518738
13
9.228621
23
21.915707
33
-4.518738
0
3DFACE
8
0
62
1
10
7.807618
20
21.915707
30
-6.069763
11
9.228621
21
21.915707
31
-6.069763
12
9.228621
22
19.348015
32
-6.069763
13
9.228621
23
19.348015
33
-6.069763
0
3DFACE
8
0
62
1
10
7.807618
20
21.915707
30
-6.069763
11
9.228621
21
19.348015
31
-6.069763
12
7.807618
22
19.348015
32
-6.069763
13
7.807618
23
19.348015
33
-6.069763
0
3DFACE
8
0
62
1
10
7.807618
20
21.915707
30
-4.518738
11
9.228621
21
21.915707
31
-4.518738
12
9.228621
22
21.915707
32
-6.069763
13
9.228621
23
21.915707
33
-6.069763
0
3DFACE
8
0
62
1
10
7.807618
20
21.915707
30
-4.518738
11
9.228621
21
21.915707
31
-6.069763
12
7.807618
22
21.915707
32
-6.069763
13
7.807618
23
21.915707
33
-6.069763
0
3DFACE
8
0
62
1
10
7.807618
20
19.348015
30
-6.069763
11
9.228621
21
19.348015
31
-6.069763
12
9.228621
22
19.348015
32
-4.518738
13
9.228621
23
19.348015
33
-4.518738
0
3DFACE
8
0
62
1
10
7.807618
20
19.348015
30
-6.069763
11
9.228621
21
19.348015
31
-4.518738
12
7.807618
22
19.348015
32
-4.518738
13
7.807618
23
19.348015
33
-4.518738
0
3DFACE
8
0
62
1
10
7.807618
20
19.348015
30
-4.518738
11
9.228621
21
19.348015
31
-4.518738
12
9.228621
22
21.915707
32
-4.518738
13
9.228621
23
21.915707
33
-4.518738
0
3DFACE
8
0
62
1
10
7.807618
20
19.348015
30
-4.518738
11
9.228621
21
21.915707
31
-4.518738
12
7.807618
22
21.915707
32
-4.518738
13
7.807618
23
21.915707
33
-4.518738
0
3DFACE
8
0
62
1
10
6.508354
20
21.232374
30
-6.069763
11
7.807618
21
21.915707
31
-6.069763
12
7.807618
22
19.348015
32
-6.069763
13
7.807618
23
19.348015
33
-6.069763
0
3DFACE
8
0
62
1
10
6.508354
20
21.232374
30
-6.069763
11
7.807618
21
19.348015
31
-6.069763
12
6.508354
22
18.714680
32
-6.069763
13
6.508354
23
18.714680
33
-6.069763
0
3DFACE
8
0
62
1
10
6.508354
20
21.232374
30
-4.518738
11
7.807618
21
21.915707
31
-4.518738
12
7.807618
22
21.915707
32
-6.069763
13
7.807618
23
21.915707
33
-6.069763
0
3DFACE
8
0
62
1
10
6.508354
20
21.232374
30
-4.518738
11
7.807618
21
21.915707
31
-6.069763
12
6.508354
22
21.232374
32
-6.069763
13
6.508354
23
21.232374
33
-6.069763
0
3DFACE
8
0
62
1
10
6.508354
20
18.714680
30
-6.069763
11
7.807618
21
19.348015
31
-6.069763
12
7.807618
22
19.348015
32
-4.518738
13
7.807618
23
19.348015
33
-4.518738
0
3DFACE
8
0
62
1
10
6.508354
20
18.714680
30
-6.069763
11
7.807618
21
19.348015
31
-4.518738
12
6.508354
22
18.714680
32
-4.518738
13
6.508354
23
18.714680
33
-4.518738
0
3DFACE
8
0
62
1
10
6.508354
20
18.714680
30
-4.518738
11
7.807618
21
19.348015
31
-4.518738
12
7.807618
22
21.915707
32
-4.518738
13
7.807618
23
21.915707
33
-4.518738
0
3DFACE
8
0
62
1
10
6.508354
20
18.714680
30
-4.518738
11
7.807618
21
21.915707
31
-4.518738
12
6.508354
22
21.232374
32
-4.518738
13
6.508354
23
21.232374
33
-4.518738
0
3DFACE
8
0
62
1
10
5.209077
20
20.099039
30
-6.069763
11
6.508354
21
21.232374
31
-6.069763
12
6.508354
22
18.714680
32
-6.069763
13
6.508354
23
18.714680
33
-6.069763
0
3DFACE
8
0
62
1
10
5.209077
20
20.099039
30
-6.069763
11
6.508354
21
18.714680
31
-6.069763
12
5.209077
22
17.614679
32
-6.069763
13
5.209077
23
17.614679
33
-6.069763
0
3DFACE
8
0
62
1
10
5.209077
20
20.099039
30
-4.518738
11
6.508354
21
21.232374
31
-4.518738
12
6.508354
22
21.232374
32
-6.069763
13
6.508354
23
21.232374
33
-6.069763
0
3DFACE
8
0
62
1
10
5.209077
20
20.099039
30
-4.518738
11
6.508354
21
21.232374
31
-6.069763
12
5.209077
22
20.099039
32
-6.069763
13
5.209077
23
20.099039
33
-6.069763
0
3DFACE
8
0
62
1
10
5.209077
20
17.614679
30
-6.069763
11
6.508354
21
18.714680
31
-6.069763
12
6.508354
22
18.714680
32
-4.518738
13
6.508354
23
18.714680
33
-4.518738
0
3DFACE
8
0
62
1
10
5.209077
20
17.614679
30
-6.069763
11
6.508354
21
18.714680
31
-4.518738
12
5.209077
22
17.614679
32
-4.518738
13
5.209077
23
17.614679
33
-4.518738
0
3DFACE
8
0
62
1
10
5.209077
20
17.614679
30
-4.518738
11
6.508354
21
18.714680
31
-4.518738
12
6.508354
22
21.232374
32
-4.518738
13
6.508354
23
21.232374
33
-4.518738
0
3DFACE
8
0
62
1
10
5.209077
20
17.614679
30
-4.518738
11
6.508354
21
21.232374
31
-4.518738
12
5.209077
22
20.099039
32
-4.518738
13
5.209077
23
20.099039
33
-4.518738
0
3DFACE
8
0
62
1
10
4.423856
20
19.120064
30
-4.515322
11
4.423856
21
7.038022
31
-4.515322
12
6.219775
22
19.120064
32
-4.515322
13
6.219775
23
19.120064
33
-4.515322
0
3DFACE
8
0
62
1
10
4.423856
20
7.038022
30
-4.515322
11
6.219775
21
7.038022
31
-4.515322
12
6.219775
22
19.120064
32
-4.515322
13
6.219775
23
19.120064
33
-4.515322
0
3DFACE
8
0
62
1
10
6.219775
20
19.120064
30
-4.515322
11
6.219775
21
7.038022
31
-4.515322
12
6.219775
22
19.120064
32
-6.055097
13
6.219775
23
19.120064
33
-6.055097
0
3DFACE
8
0
62
1
10
6.219775
20
7.038022
30
-4.515322
11
6.219775
21
7.038022
31
-6.055097
12
6.219775
22
19.120064
32
-6.055097
13
6.219775
23
19.120064
33
-6.055097
0
3DFACE
8
0
62
1
10
6.219775
20
19.120064
30
-6.055097
11
6.219775
21
7.038022
31
-6.055097
12
4.423856
22
19.120064
32
-6.055097
13
4.423856
23
19.120064
33
-6.055097
0
3DFACE
8
0
62
1
10
6.219775
20
7.038022
30
-6.055097
11
4.423856
21
7.038022
31
-6.055097
12
4.423856
22
19.120064
32
-6.055097
13
4.423856
23
19.120064
33
-6.055097
0
3DFACE
8
0
62
1
10
4.423856
20
19.120064
30
-6.055097
11
4.423856
21
7.038022
31
-6.055097
12
4.423856
22
19.120064
32
-4.515322
13
4.423856
23
19.120064
33
-4.515322
0
3DFACE
8
0
62
1
10
4.423856
20
7.038022
30
-6.055097
11
4.423856
21
7.038022
31
-4.515322
12
4.423856
22
19.120064
32
-4.515322
13
4.423856
23
19.120064
33
-4.515322
0
3DFACE
8
0
62
1
10
4.423856
20
19.120064
30
-6.055097
11
4.423856
21
19.120064
31
-4.515322
12
6.219775
22
19.120064
32
-6.055097
13
6.219775
23
19.120064
33
-6.055097
0
3DFACE
8
0
62
1
10
4.423856
20
19.120064
30
-4.515322
11
6.219775
21
19.120064
31
-4.515322
12
6.219775
22
19.120064
32
-6.055097
13
6.219775
23
19.120064
33
-6.055097
0
3DFACE
8
0
62
1
10
4.423856
20
7.038022
30
-4.515322
11
4.423856
21
7.038022
31
-6.055097
12
6.219775
22
7.038022
32
-4.515322
13
6.219775
23
7.038022
33
-4.515322
0
3DFACE
8
0
62
1
10
4.423856
20
7.038022
30
-6.055097
11
6.219775
21
7.038022
31
-6.055097
12
6.219775
22
7.038022
32
-4.515322
13
6.219775
23
7.038022
33
-4.515322
0
3DFACE
8
0
62
1
10
-0.962798
20
6.062857
30
-4.263908
11
-0.542595
21
-6.312857
31
-4.684114
12
0.830814
22
6.062857
32
-4.263908
13
0.830814
23
6.062857
33
-4.263908
0
3DFACE
8
0
62
1
10
-0.542595
20
-6.312857
30
-4.684114
11
0.410606
21
-6.312857
31
-4.684114
12
0.830814
22
6.062857
32
-4.263908
13
0.830814
23
6.062857
33
-4.263908
0
3DFACE
8
0
62
1
10
0.830814
20
6.062857
30
-4.263908
11
0.410606
21
-6.312857
31
-4.684114
12
0.830814
22
6.062857
32
-6.057521
13
0.830814
23
6.062857
33
-6.057521
0
3DFACE
8
0
62
1
10
0.410606
20
-6.312857
30
-4.684114
11
0.410606
21
-6.312857
31
-5.637315
12
0.830814
22
6.062857
32
-6.057521
13
0.830814
23
6.062857
33
-6.057521
0
3DFACE
8
0
62
1
10
0.830814
20
6.062857
30
-6.057521
11
0.410606
21
-6.312857
31
-5.637315
12
-0.962798
22
6.062857
32
-6.057521
13
-0.962798
23
6.062857
33
-6.057521
0
3DFACE
8
0
62
1
10
0.410606
20
-6.312857
30
-5.637315
11
-0.542595
21
-6.312857
31
-5.637315
12
-0.962798
22
6.062857
32
-6.057521
13
-0.962798
23
6.062857
33
-6.057521
0
3DFACE
8
0
62
1
10
-0.962798
20
6.062857
30
-6.057521
11
-0.542595
21
-6.312857
31
-5.637315
12
-0.962798
22
6.062857
32
-4.263908
13
-0.962798
23
6.062857
33
-4.263908
0
3DFACE
8
0
62
1
10
-0.542595
20
-6.312857
30
-5.637315
11
-0.542595
21
-6.312857
31
-4.684114
12
-0.962798
22
6.062857
32
-4.263908
13
-0.962798
23
6.062857
33
-4.263908
0
3DFACE
8
0
62
1
10
-0.962798
20
6.062857
30
-6.057521
11
-0.962798
21
6.062857
31
-4.263908
12
0.830814
22
6.062857
32
-6.057521
13
0.830814
23
6.062857
33
-6.057521
0
3DFACE
8
0
62
1
10
-0.962798
20
6.062857
30
-4.263908
11
0.830814
21
6.062857
31
-4.263908
12
0.830814
22
6.062857
32
-6.057521
13
0.830814
23
6.062857
33
-6.057521
0
3DFACE
8
0
62
1
10
-0.542595
20
-6.312857
30
-4.684114
11
-0.542595
21
-6.312857
31
-5.637315
12
0.410606
22
-6.312857
32
-4.684114
13
0.410606
23
-6.312857
33
-4.684114
0
3DFACE
8
0
62
1
10
-0.542595
20
-6.312857
30
-5.637315
11
0.410606
21
-6.312857
31
-5.637315
12
0.410606
22
-6.312857
32
-4.684114
13
0.410606
23
-6.312857
33
-4.684114
0
ENDSEC
0
EOF
