0
SECTION
2
HEADER
0
ENDSEC
0
SECTION
2
ENTITIES
0
3DFACE
8
0
62
1
10
-5.510848
20
-3.291390
30
6.010848
11
5.489979
21
-3.291390
31
6.010848
12
5.489979
22
-2.225312
32
6.010848
13
5.489979
23
-2.225312
33
6.010848
0
3DFACE
8
0
62
1
10
5.489979
20
-2.225312
30
6.010848
11
5.489979
21
-3.291390
31
6.010848
12
5.489979
22
-2.225312
32
-4.989979
13
5.489979
23
-2.225312
33
-4.989979
0
3DFACE
8
0
62
1
10
5.489979
20
-3.291390
30
6.010848
11
5.489979
21
-3.291390
31
-4.989979
12
5.489979
22
-2.225312
32
-4.989979
13
5.489979
23
-2.225312
33
-4.989979
0
3DFACE
8
0
62
1
10
5.489979
20
-2.225312
30
-4.989979
11
5.489979
21
-3.291390
31
-4.989979
12
-5.510848
22
-2.225312
32
-4.989979
13
-5.510848
23
-2.225312
33
-4.989979
0
3DFACE
8
0
62
1
10
5.489979
20
-3.291390
30
-4.989979
11
-5.510848
21
-3.291390
31
-4.989979
12
-5.510848
22
-2.225312
32
-4.989979
13
-5.510848
23
-2.225312
33
-4.989979
0
3DFACE
8
0
62
1
10
-5.510848
20
-2.225312
30
-4.989979
11
-5.510848
21
-3.291390
31
-4.989979
12
-5.510848
22
-2.225312
32
6.010848
13
-5.510848
23
-2.225312
33
6.010848
0
3DFACE
8
0
62
1
10
-5.510848
20
-3.291390
30
-4.989979
11
-5.510848
21
-3.291390
31
6.010848
12
-5.510848
22
-2.225312
32
6.010848
13
-5.510848
23
-2.225312
33
6.010848
0
3DFACE
8
0
62
1
10
-5.510848
20
-2.225312
30
-4.989979
11
-5.510848
21
-2.225312
31
6.010848
12
5.489979
22
-2.225312
32
-4.989979
13
5.489979
23
-2.225312
33
-4.989979
0
3DFACE
8
0
62
1
10
-5.510848
20
-2.225312
30
6.010848
11
5.489979
21
-2.225312
31
6.010848
12
5.489979
22
-2.225312
32
-4.989979
13
5.489979
23
-2.225312
33
-4.989979
0
3DFACE
8
0
62
1
10
-5.510848
20
-3.291390
30
6.010848
11
-5.510848
21
-3.291390
31
-4.989979
12
5.489979
22
-3.291390
32
6.010848
13
5.489979
23
-3.291390
33
6.010848
0
3DFACE
8
0
62
1
10
-5.510848
20
-3.291390
30
-4.989979
11
5.489979
21
-3.291390
31
-4.989979
12
5.489979
22
-3.291390
32
6.010848
13
5.489979
23
-3.291390
33
6.010848
0
3DFACE
8
0
62
1
10
-5.510848
20
-2.225312
30
6.010848
11
-5.510848
21
-3.291390
31
6.010848
12
5.489979
22
-2.225312
32
6.010848
13
5.489979
23
-2.225312
33
6.010848
0
3DFACE
8
0
62
1
10
-5.510256
20
-3.292045
30
-3.682176
11
-5.510256
21
-13.781363
31
-3.682176
12
-4.027502
22
-3.292045
32
-3.682176
13
-4.027502
23
-3.292045
33
-3.682176
0
3DFACE
8
0
62
1
10
-5.510256
20
-13.781363
30
-3.682176
11
-4.027502
21
-13.781363
31
-3.682176
12
-4.027502
22
-3.292045
32
-3.682176
13
-4.027502
23
-3.292045
33
-3.682176
0
3DFACE
8
0
62
1
10
-4.027502
20
-3.292045
30
-3.682176
11
-4.027502
21
-13.781363
31
-3.682176
12
-4.027502
22
-3.292045
32
-4.989720
13
-4.027502
23
-3.292045
33
-4.989720
0
3DFACE
8
0
62
1
10
-4.027502
20
-13.781363
30
-3.682176
11
-4.027502
21
-13.781363
31
-4.989720
12
-4.027502
22
-3.292045
32
-4.989720
13
-4.027502
23
-3.292045
33
-4.989720
0
3DFACE
8
0
62
1
10
-4.027502
20
-3.292045
30
-4.989720
11
-4.027502
21
-13.781363
31
-4.989720
12
-5.510848
22
-3.291390
32
-4.989979
13
-5.510848
23
-3.291390
33
-4.989979
0
3DFACE
8
0
62
1
10
-4.027502
20
-13.781363
30
-4.989720
11
-5.510256
21
-13.781363
31
-4.989720
12
-5.510848
22
-3.291390
32
-4.989979
13
-5.510848
23
-3.291390
33
-4.989979
0
3DFACE
8
0
62
1
10
-5.510848
20
-3.291390
30
-4.989979
11
-5.510256
21
-13.781363
31
-4.989720
12
-5.510256
22
-3.292045
32
-3.682176
13
-5.510256
23
-3.292045
33
-3.682176
0
3DFACE
8
0
62
1
10
-5.510256
20
-13.781363
30
-4.989720
11
-5.510256
21
-13.781363
31
-3.682176
12
-5.510256
22
-3.292045
32
-3.682176
13
-5.510256
23
-3.292045
33
-3.682176
0
3DFACE
8
0
62
1
10
-5.510848
20
-3.291390
30
-4.989979
11
-5.510256
21
-3.292045
31
-3.682176
12
-4.027502
22
-3.292045
32
-4.989720
13
-4.027502
23
-3.292045
33
-4.989720
0
3DFACE
8
0
62
1
10
-5.510256
20
-3.292045
30
-3.682176
11
-4.027502
21
-3.292045
31
-3.682176
12
-4.027502
22
-3.292045
32
-4.989720
13
-4.027502
23
-3.292045
33
-4.989720
0
3DFACE
8
0
62
1
10
-5.510256
20
-13.781363
30
-3.682176
11
-5.510256
21
-13.781363
31
-4.989720
12
-4.027502
22
-13.781363
32
-3.682176
13
-4.027502
23
-13.781363
33
-3.682176
0
3DFACE
8
0
62
1
10
-5.510256
20
-13.781363
30
-4.989720
11
-4.027502
21
-13.781363
31
-4.989720
12
-4.027502
22
-13.781363
32
-3.682176
13
-4.027502
23
-13.781363
33
-3.682176
0
3DFACE
8
0
62
1
10
-5.510848
20
-3.291390
30
6.010848
11
-5.510256
21
-13.781363
31
6.011183
12
-4.027502
22
-3.292045
32
6.011183
13
-4.027502
23
-3.292045
33
6.011183
0
3DFACE
8
0
62
1
10
-5.510256
20
-13.781363
30
6.011183
11
-4.027502
21
-13.781363
31
6.011183
12
-4.027502
22
-3.292045
32
6.011183
13
-4.027502
23
-3.292045
33
6.011183
0
3DFACE
8
0
62
1
10
-4.027502
20
-3.292045
30
6.011183
11
-4.027502
21
-13.781363
31
6.011183
12
-4.027502
22
-3.292045
32
4.703641
13
-4.027502
23
-3.292045
33
4.703641
0
3DFACE
8
0
62
1
10
-4.027502
20
-13.781363
30
6.011183
11
-4.027502
21
-13.781363
31
4.703641
12
-4.027502
22
-3.292045
32
4.703641
13
-4.027502
23
-3.292045
33
4.703641
0
3DFACE
8
0
62
1
10
-4.027502
20
-3.292045
30
4.703641
11
-4.027502
21
-13.781363
31
4.703641
12
-5.510256
22
-3.292045
32
4.703641
13
-5.510256
23
-3.292045
33
4.703641
0
3DFACE
8
0
62
1
10
-4.027502
20
-13.781363
30
4.703641
11
-5.510256
21
-13.781363
31
4.703641
12
-5.510256
22
-3.292045
32
4.703641
13
-5.510256
23
-3.292045
33
4.703641
0
3DFACE
8
0
62
1
10
-5.510256
20
-3.292045
30
4.703641
11
-5.510256
21
-13.781363
31
4.703641
12
-5.510848
22
-3.291390
32
6.010848
13
-5.510848
23
-3.291390
33
6.010848
0
3DFACE
8
0
62
1
10
-5.510256
20
-13.781363
30
4.703641
11
-5.510256
21
-13.781363
31
6.011183
12
-5.510848
22
-3.291390
32
6.010848
13
-5.510848
23
-3.291390
33
6.010848
0
3DFACE
8
0
62
1
10
-5.510256
20
-3.292045
30
4.703641
11
-5.510848
21
-3.291390
31
6.010848
12
-4.027502
22
-3.292045
32
4.703641
13
-4.027502
23
-3.292045
33
4.703641
0
3DFACE
8
0
62
1
10
-5.510848
20
-3.291390
30
6.010848
11
-4.027502
21
-3.292045
31
6.011183
12
-4.027502
22
-3.292045
32
4.703641
13
-4.027502
23
-3.292045
33
4.703641
0
3DFACE
8
0
62
1
10
-5.510256
20
-13.781363
30
6.011183
11
-5.510256
21
-13.781363
31
4.703641
12
-4.027502
22
-13.781363
32
6.011183
13
-4.027502
23
-13.781363
33
6.011183
0
3DFACE
8
0
62
1
10
-5.510256
20
-13.781363
30
4.703641
11
-4.027502
21
-13.781363
31
4.703641
12
-4.027502
22
-13.781363
32
6.011183
13
-4.027502
23
-13.781363
33
6.011183
0
3DFACE
8
0
62
1
10
4.007851
20
-3.292045
30
6.011183
11
4.007851
21
-13.781363
31
6.011183
12
5.489979
22
-3.291390
32
6.010848
13
5.489979
23
-3.291390
33
6.010848
0
3DFACE
8
0
62
1
10
4.007851
20
-13.781363
30
6.011183
11
5.490606
21
-13.781363
31
6.011183
12
5.489979
22
-3.291390
32
6.010848
13
5.489979
23
-3.291390
33
6.010848
0
3DFACE
8
0
62
1
10
5.489979
20
-3.291390
30
6.010848
11
5.490606
21
-13.781363
31
6.011183
12
5.490606
22
-3.292045
32
4.703641
13
5.490606
23
-3.292045
33
4.703641
0
3DFACE
8
0
62
1
10
5.490606
20
-13.781363
30
6.011183
11
5.490606
21
-13.781363
31
4.703641
12
5.490606
22
-3.292045
32
4.703641
13
5.490606
23
-3.292045
33
4.703641
0
3DFACE
8
0
62
1
10
5.490606
20
-3.292045
30
4.703641
11
5.490606
21
-13.781363
31
4.703641
12
4.007851
22
-3.292045
32
4.703641
13
4.007851
23
-3.292045
33
4.703641
0
3DFACE
8
0
62
1
10
5.490606
20
-13.781363
30
4.703641
11
4.007851
21
-13.781363
31
4.703641
12
4.007851
22
-3.292045
32
4.703641
13
4.007851
23
-3.292045
33
4.703641
0
3DFACE
8
0
62
1
10
4.007851
20
-3.292045
30
4.703641
11
4.007851
21
-13.781363
31
4.703641
12
4.007851
22
-3.292045
32
6.011183
13
4.007851
23
-3.292045
33
6.011183
0
3DFACE
8
0
62
1
10
4.007851
20
-13.781363
30
4.703641
11
4.007851
21
-13.781363
31
6.011183
12
4.007851
22
-3.292045
32
6.011183
13
4.007851
23
-3.292045
33
6.011183
0
3DFACE
8
0
62
1
10
4.007851
20
-3.292045
30
4.703641
11
4.007851
21
-3.292045
31
6.011183
12
5.490606
22
-3.292045
32
4.703641
13
5.490606
23
-3.292045
33
4.703641
0
3DFACE
8
0
62
1
10
4.007851
20
-3.292045
30
6.011183
11
5.489979
21
-3.291390
31
6.010848
12
5.490606
22
-3.292045
32
4.703641
13
5.490606
23
-3.292045
33
4.703641
0
3DFACE
8
0
62
1
10
4.007851
20
-13.781363
30
6.011183
11
4.007851
21
-13.781363
31
4.703641
12
5.490606
22
-13.781363
32
6.011183
13
5.490606
23
-13.781363
33
6.011183
0
3DFACE
8
0
62
1
10
4.007851
20
-13.781363
30
4.703641
11
5.490606
21
-13.781363
31
4.703641
12
5.490606
22
-13.781363
32
6.011183
13
5.490606
23
-13.781363
33
6.011183
0
3DFACE
8
0
62
1
10
4.007851
20
-3.292045
30
-3.682177
11
4.007851
21
-13.781363
31
-3.682177
12
5.490606
22
-3.292045
32
-3.682177
13
5.490606
23
-3.292045
33
-3.682177
0
3DFACE
8
0
62
1
10
4.007851
20
-13.781363
30
-3.682177
11
5.490606
21
-13.781363
31
-3.682177
12
5.490606
22
-3.292045
32
-3.682177
13
5.490606
23
-3.292045
33
-3.682177
0
3DFACE
8
0
62
1
10
5.490606
20
-3.292045
30
-3.682177
11
5.490606
21
-13.781363
31
-3.682177
12
5.489979
22
-3.291390
32
-4.989979
13
5.489979
23
-3.291390
33
-4.989979
0
3DFACE
8
0
62
1
10
5.490606
20
-13.781363
30
-3.682177
11
5.490606
21
-13.781363
31
-4.989719
12
5.489979
22
-3.291390
32
-4.989979
13
5.489979
23
-3.291390
33
-4.989979
0
3DFACE
8
0
62
1
10
5.489979
20
-3.291390
30
-4.989979
11
5.490606
21
-13.781363
31
-4.989719
12
4.007851
22
-3.292045
32
-4.989719
13
4.007851
23
-3.292045
33
-4.989719
0
3DFACE
8
0
62
1
10
5.490606
20
-13.781363
30
-4.989719
11
4.007851
21
-13.781363
31
-4.989719
12
4.007851
22
-3.292045
32
-4.989719
13
4.007851
23
-3.292045
33
-4.989719
0
3DFACE
8
0
62
1
10
4.007851
20
-3.292045
30
-4.989719
11
4.007851
21
-13.781363
31
-4.989719
12
4.007851
22
-3.292045
32
-3.682177
13
4.007851
23
-3.292045
33
-3.682177
0
3DFACE
8
0
62
1
10
4.007851
20
-13.781363
30
-4.989719
11
4.007851
21
-13.781363
31
-3.682177
12
4.007851
22
-3.292045
32
-3.682177
13
4.007851
23
-3.292045
33
-3.682177
0
3DFACE
8
0
62
1
10
4.007851
20
-3.292045
30
-4.989719
11
4.007851
21
-3.292045
31
-3.682177
12
5.489979
22
-3.291390
32
-4.989979
13
5.489979
23
-3.291390
33
-4.989979
0
3DFACE
8
0
62
1
10
4.007851
20
-3.292045
30
-3.682177
11
5.490606
21
-3.292045
31
-3.682177
12
5.489979
22
-3.291390
32
-4.989979
13
5.489979
23
-3.291390
33
-4.989979
0
3DFACE
8
0
62
1
10
4.007851
20
-13.781363
30
-3.682177
11
4.007851
21
-13.781363
31
-4.989719
12
5.490606
22
-13.781363
32
-3.682177
13
5.490606
23
-13.781363
33
-3.682177
0
3DFACE
8
0
62
1
10
4.007851
20
-13.781363
30
-4.989719
11
5.490606
21
-13.781363
31
-4.989719
12
5.490606
22
-13.781363
32
-3.682177
13
5.490606
23
-13.781363
33
-3.682177
0
3DFACE
8
0
62
1
10
-5.515545
20
6.877542
30
-4.011134
11
-5.515545
21
-2.456493
31
-4.011134
12
-4.041861
22
6.877542
32
-4.011134
13
-4.041861
23
6.877542
33
-4.011134
0
3DFACE
8
0
62
1
10
-5.515545
20
-2.456493
30
-4.011134
11
-4.041861
21
-2.456493
31
-4.011134
12
-4.041861
22
6.877542
32
-4.011134
13
-4.041861
23
6.877542
33
-4.011134
0
3DFACE
8
0
62
1
10
-4.041861
20
6.877542
30
-4.011134
11
-4.041861
21
-2.456493
31
-4.011134
12
-4.041861
22
6.877542
32
-4.993590
13
-4.041861
23
6.877542
33
-4.993590
0
3DFACE
8
0
62
1
10
-4.041861
20
-2.456493
30
-4.011134
11
-4.041861
21
-2.456493
31
-4.993590
12
-4.041861
22
6.877542
32
-4.993590
13
-4.041861
23
6.877542
33
-4.993590
0
3DFACE
8
0
62
1
10
-4.041861
20
6.877542
30
-4.993590
11
-4.041861
21
-2.456493
31
-4.993590
12
-5.515545
22
6.877542
32
-4.993590
13
-5.515545
23
6.877542
33
-4.993590
0
3DFACE
8
0
62
1
10
-4.041861
20
-2.456493
30
-4.993590
11
-5.515545
21
-2.456493
31
-4.993590
12
-5.515545
22
6.877542
32
-4.993590
13
-5.515545
23
6.877542
33
-4.993590
0
3DFACE
8
0
62
1
10
-5.515545
20
6.877542
30
-4.993590
11
-5.515545
21
-2.456493
31
-4.993590
12
-5.515545
22
6.877542
32
-4.011134
13
-5.515545
23
6.877542
33
-4.011134
0
3DFACE
8
0
62
1
10
-5.515545
20
-2.456493
30
-4.993590
11
-5.515545
21
-2.456493
31
-4.011134
12
-5.515545
22
6.877542
32
-4.011134
13
-5.515545
23
6.877542
33
-4.011134
0
3DFACE
8
0
62
1
10
-5.515545
20
6.877542
30
-4.993590
11
-5.515545
21
6.877542
31
-4.011134
12
-4.041861
22
6.877542
32
-4.993590
13
-4.041861
23
6.877542
33
-4.993590
0
3DFACE
8
0
62
1
10
-5.515545
20
6.877542
30
-4.011134
11
-4.041861
21
6.877542
31
-4.011134
12
-4.041861
22
6.877542
32
-4.993590
13
-4.041861
23
6.877542
33
-4.993590
0
3DFACE
8
0
62
1
10
4.010772
20
6.877542
30
-4.048168
11
4.010772
21
-2.456493
31
-4.048168
12
5.484456
22
6.877542
32
-4.048168
13
5.484456
23
6.877542
33
-4.048168
0
3DFACE
8
0
62
1
10
4.010772
20
-2.456493
30
-4.048168
11
5.484456
21
-2.456493
31
-4.048168
12
5.484456
22
6.877542
32
-4.048168
13
5.484456
23
6.877542
33
-4.048168
0
3DFACE
8
0
62
1
10
5.484456
20
6.877542
30
-4.048168
11
5.484456
21
-2.456493
31
-4.048168
12
5.484456
22
6.877542
32
-5.030625
13
5.484456
23
6.877542
33
-5.030625
0
3DFACE
8
0
62
1
10
5.484456
20
-2.456493
30
-4.048168
11
5.484456
21
-2.456493
31
-5.030625
12
5.484456
22
6.877542
32
-5.030625
13
5.484456
23
6.877542
33
-5.030625
0
3DFACE
8
0
62
1
10
5.484456
20
6.877542
30
-5.030625
11
5.484456
21
-2.456493
31
-5.030625
12
4.010772
22
6.877542
32
-5.030625
13
4.010772
23
6.877542
33
-5.030625
0
3DFACE
8
0
62
1
10
5.484456
20
-2.456493
30
-5.030625
11
4.010772
21
-2.456493
31
-5.030625
12
4.010772
22
6.877542
32
-5.030625
13
4.010772
23
6.877542
33
-5.030625
0
3DFACE
8
0
62
1
10
4.010772
20
6.877542
30
-5.030625
11
4.010772
21
-2.456493
31
-5.030625
12
4.010772
22
6.877542
32
-4.048168
13
4.010772
23
6.877542
33
-4.048168
0
3DFACE
8
0
62
1
10
4.010772
20
-2.456493
30
-5.030625
11
4.010772
21
-2.456493
31
-4.048168
12
4.010772
22
6.877542
32
-4.048168
13
4.010772
23
6.877542
33
-4.048168
0
3DFACE
8
0
62
1
10
4.010772
20
6.877542
30
-5.030625
11
4.010772
21
6.877542
31
-4.048168
12
5.484456
22
6.877542
32
-5.030625
13
5.484456
23
6.877542
33
-5.030625
0
3DFACE
8
0
62
1
10
4.010772
20
6.877542
30
-4.048168
11
5.484456
21
6.877542
31
-4.048168
12
5.484456
22
6.877542
32
-5.030625
13
5.484456
23
6.877542
33
-5.030625
0
3DFACE
8
0
62
1
10
-4.026381
20
6.002222
30
-4.247887
11
-4.026381
21
1.260936
31
-4.247887
12
4.003031
22
6.002222
32
-4.247887
13
4.003031
23
6.002222
33
-4.247887
0
3DFACE
8
0
62
1
10
-4.026381
20
1.260936
30
-4.247887
11
4.003031
21
1.260936
31
-4.247887
12
4.003031
22
6.002222
32
-4.247887
13
4.003031
23
6.002222
33
-4.247887
0
3DFACE
8
0
62
1
10
4.003031
20
6.002222
30
-4.749611
11
4.003031
21
1.260936
31
-4.749611
12
-4.026381
22
6.002222
32
-4.749611
13
-4.026381
23
6.002222
33
-4.749611
0
3DFACE
8
0
62
1
10
4.003031
20
1.260936
30
-4.749611
11
-4.026381
21
1.260936
31
-4.749611
12
-4.026381
22
6.002222
32
-4.749611
13
-4.026381
23
6.002222
33
-4.749611
0
3DFACE
8
0
62
1
10
-4.026381
20
6.002222
30
-4.749611
11
-4.026381
21
6.002222
31
-4.247887
12
4.003031
22
6.002222
32
-4.749611
13
4.003031
23
6.002222
33
-4.749611
0
3DFACE
8
0
62
1
10
-4.026381
20
6.002222
30
-4.247887
11
4.003031
21
6.002222
31
-4.247887
12
4.003031
22
6.002222
32
-4.749611
13
4.003031
23
6.002222
33
-4.749611
0
3DFACE
8
0
62
1
10
-4.026381
20
1.260936
30
-4.247887
11
-4.026381
21
1.260936
31
-4.749611
12
4.003031
22
1.260936
32
-4.247887
13
4.003031
23
1.260936
33
-4.247887
0
3DFACE
8
0
62
1
10
-4.026381
20
1.260936
30
-4.749611
11
4.003031
21
1.260936
31
-4.749611
12
4.003031
22
1.260936
32
-4.247887
13
4.003031
23
1.260936
33
-4.247887
0
ENDSEC
0
EOF
